<?xml version="1.0" standalone="no"?>
<!DOCTYPE svg PUBLIC "-//W3C//DTD SVG 20010904//EN"
 "http://www.w3.org/TR/2001/REC-SVG-20010904/DTD/svg10.dtd">
<svg version="1.0" xmlns="http://www.w3.org/2000/svg"
 width="67.000000pt" height="40.000000pt" viewBox="0 0 67.000000 40.000000"
 preserveAspectRatio="xMidYMid meet">

<g transform="translate(0.000000,40.000000) scale(0.100000,-0.100000)"
fill="#000000" stroke="none">
<path d="M363 354 c-42 -25 -57 -42 -28 -30 9 3 36 -1 60 -10 41 -13 47 -13
70 2 31 20 31 28 3 48 -31 22 -56 20 -105 -10z"/>
<path d="M352 200 c0 -14 2 -19 5 -12 2 6 2 18 0 25 -3 6 -5 1 -5 -13z"/>
<path d="M310 81 c6 -12 20 -21 32 -21 12 0 19 1 17 3 -2 2 -17 11 -32 21 -28
17 -28 17 -17 -3z"/>
</g>
</svg>
